<?xml version="1.0" encoding="utf-8"?>
<!-- Generator: Adobe Illustrator 27.5.0, SVG Export Plug-In . SVG Version: 6.00 Build 0)  -->
<svg version="1.1" id="Layer_1" xmlns="http://www.w3.org/2000/svg" xmlns:xlink="http://www.w3.org/1999/xlink" x="0px" y="0px"
	 viewBox="0 0 405 287" style="enable-background:new 0 0 405 287;" xml:space="preserve" height="100" width="100">
<g>
	<g>
		<path style="fill:#231F22;" d="M151.079,29.486c0,0,17.839,18.633,30.867,10.934c14.612-8.637,22.293-34.555,22.293-34.555
			s-2.559,35.032,22.368,37.536c19.622,1.972,39.994-34.716,39.994-34.716s-21.569,38.634-1.487,62.052
			c20.68,24.113,62.022,37.372,139.375,46.538c0,0-113.637,20.604-62.861,71.725c0,0-59.815-36.115-96.959-17.431
			c-37.143,18.686-55.297,45.013-79.491,106.007c0,0,27.011-73.921,6.566-103.185c-20.448-29.263-70.532,8.647-87.911,24.514
			c0,0,46.677-42.494,45.654-74.578c-1.023-32.083-49.74-38.739-49.74-38.739s38.995,9.121,68.824-10.972
			C172.65,58.396,151.079,29.486,151.079,29.486z"/>
		
			<radialGradient id="SVGID_1_" cx="-2812.531" cy="2663.5164" r="0.9945" gradientTransform="matrix(153.6152 0 0 -158.9314 432275.7813 423459)" gradientUnits="userSpaceOnUse">
			<stop  offset="0" style="stop-color:#FF6900"/>
			<stop  offset="0.0422" style="stop-color:#FF6701"/>
			<stop  offset="1" style="stop-color:#FC3A14"/>
		</radialGradient>
		<path style="fill:url(#SVGID_1_);" d="M151.079,29.486c0,0,12.467,19.424,27.602,11.988c16.942-8.322,25.558-35.609,25.558-35.609
			s-7.839,34.527,17.038,37.536c24.876,3.009,45.324-34.716,45.324-34.716s-26.014,38.987-6.817,62.052
			c20.335,24.428,62.02,37.372,139.375,46.538c0,0-111.772,18.686-60.997,69.808c0,0-61.68-34.198-98.822-15.514
			c-37.143,18.686-50.433,46.186-74.629,107.181c0,0,22.149-75.095,1.702-104.358c-20.446-29.263-65.77,9.167-83.149,25.032
			c0,0,41.864-43.011,40.893-75.097c-0.938-30.976-66.791-42.66-66.791-42.66s57.262,11.153,85.874-7.051
			C171.482,56.647,151.079,29.486,151.079,29.486z"/>
		<path style="fill:#FF771F;" d="M163.868,45.844c0,0,10.493,16.836,22.463,11.141c11.969-5.695,15.054-28.504,15.054-28.504
			s-2.168,25.311,14.869,29.858c13.05,3.483,35.234-23.729,35.234-23.729s-22.547,25.842-8.183,42.933
			c14.363,17.089,60.96,32.6,115.301,39.037c0,0-82.316,16.436-46.648,52.35c0,0-56.922-33.681-83.016-20.552
			c-26.094,13.125-32.775,41.289-49.771,84.137c0,0,12.904-61.598-1.459-82.156c-14.363-20.556-55.195,12.276-67.404,23.422
			c0,0,38.439-36.053,37.719-58.59c-0.718-22.539-51.541-26.445-51.541-26.445s43.569,4.937,64.947-8.479
			C179.664,68.826,163.868,45.844,163.868,45.844z"/>
		<path style="fill:#F6E6D4;" d="M168.995,53.951c0,0,12.213,13.877,22.643,8.915c10.429-4.962,8.901-25.895,8.901-25.895
			s2.325,23.113,17.169,27.076c11.369,3.035,26.939-20.709,26.939-20.709s-15.885,22.549-3.37,37.439
			c12.513,14.889,55.398,30.711,102.743,36.32c0,0-74.005,12.012-42.928,43.302c0,0-49.597-29.346-72.33-17.907
			c-22.734,11.436-30.984,37.477-45.791,74.809c0,0,13.671-55.17,1.155-73.082c-12.513-17.91-48.089,10.695-58.726,20.407
			c0,0,33.49-31.412,32.863-51.048c-0.626-19.637-44.905-23.041-44.905-23.041s37.958,4.302,56.586-7.386
			C185.828,73.185,168.995,53.951,168.995,53.951z"/>
		<polygon style="fill:#FF6800;" points="255.354,97.738 373.826,37.089 376.527,39.691 		"/>
		<polygon style="fill:#FF6800;" points="261.778,87.896 312.617,37.145 316.492,38.936 		"/>
		<polygon style="fill:#FF6800;" points="257.911,66.07 257.911,33.645 262.599,33.645 		"/>
		<polygon style="fill:#FF6800;" points="261.61,72.585 287.033,37.34 291.241,38.741 		"/>
		<polygon style="fill:#FF6800;" points="94.679,20.431 98.875,19.012 139.948,75.07 		"/>
		<polygon style="fill:#FF6800;" points="94.48,54.901 98.015,52.81 164.994,105.056 		"/>
		<polygon style="fill:#FF6800;" points="121.695,94.611 42.175,34.668 45.652,32.536 		"/>
		<polygon style="fill:#FF6800;" points="142.324,111.642 50.788,77.043 53.064,74.261 		"/>
		<polygon style="fill:#FF6800;" points="98.892,102.309 14.205,84.862 15.563,81.816 		"/>
		<polygon style="fill:#FF6800;" points="55.044,174.844 53.198,171.916 142.202,149.467 		"/>
		<polygon style="fill:#FF6800;" points="55.829,228.041 52.411,225.863 178.996,134.227 		"/>
		<polygon style="fill:#FF6800;" points="98.957,174.724 96.447,172.036 140.023,153.24 		"/>
		<polygon style="fill:#FF6800;" points="234.238,226.951 229.55,226.951 229.55,163.982 		"/>
		<polygon style="fill:#FF6800;" points="274.194,269.735 242.117,202.066 278.654,268.759 		"/>
		<polygon style="fill:#FF6800;" points="273.988,236 242.168,181.723 278.344,234.822 		"/>
		<polygon style="fill:#FF6800;" points="289.983,141.031 390.148,111.273 391.842,114.243 		"/>
		<polygon style="fill:#FF6800;" points="314.841,141.127 365.112,133.735 365.683,136.895 		"/>
		<polygon style="fill:#F7331B;" points="249.677,94.396 368.153,33.747 370.852,36.35 		"/>
		<polygon style="fill:#F7331B;" points="256.101,84.555 306.941,33.804 310.817,35.595 		"/>
		<polygon style="fill:#F7331B;" points="252.236,62.729 252.236,30.303 256.924,30.303 		"/>
		<polygon style="fill:#F7331B;" points="255.936,69.243 281.355,33.998 285.563,35.4 		"/>
		<polygon style="fill:#F7331B;" points="89.001,17.09 93.196,15.67 134.272,71.729 		"/>
		<polygon style="fill:#F7331B;" points="88.803,51.56 92.337,49.469 159.319,101.715 		"/>
		<polygon style="fill:#F7331B;" points="116.017,91.269 36.497,31.326 39.979,29.194 		"/>
		<polygon style="fill:#F7331B;" points="136.648,108.3 45.11,73.702 47.391,70.92 		"/>
		<polygon style="fill:#F7331B;" points="93.214,98.968 8.526,81.521 9.888,78.477 		"/>
		<polygon style="fill:#F7331B;" points="49.367,171.502 47.521,168.576 136.523,146.125 		"/>
		<polygon style="fill:#F7331B;" points="50.154,224.699 46.736,222.521 173.321,130.885 		"/>
		<polygon style="fill:#F7331B;" points="93.279,171.382 90.768,168.695 134.344,149.899 		"/>
		<polygon style="fill:#F7331B;" points="228.561,223.609 223.873,223.609 223.873,160.641 		"/>
		<polygon style="fill:#F7331B;" points="268.518,266.393 236.438,198.725 272.979,265.417 		"/>
		<polygon style="fill:#F7331B;" points="268.31,232.659 236.493,178.381 272.666,231.48 		"/>
		<polygon style="fill:#F7331B;" points="284.305,137.69 384.473,107.934 386.167,110.902 		"/>
		<polygon style="fill:#F7331B;" points="309.163,137.785 359.438,130.395 360.008,133.554 		"/>
	</g>
	<g>
		<g>
			<path d="M81.795,201.277c-0.946-14.029-2.806-32.952-5.527-56.24c-0.728-6.582-1.395-11.772-1.985-15.447l-0.288-1.789
				l1.503-0.936c1.764-1.097,5.106-3.481,9.936-7.088c4.334-3.16,7.916-5.537,10.671-7.084l0.059-0.034l0.061-0.03
				c1.116-0.551,2.206-1.055,3.241-1.498c1.403-0.601,2.742-1.074,3.978-1.404c3.754-1.004,6.862-0.77,9.237,0.697
				c2.12,1.307,3.563,3.512,4.29,6.552c1.943,7.779,0.174,17.151-5.261,27.906c2.844-0.332,6.557,0.212,8.774,4.386l0.04,0.076
				c0.487,0.991,0.878,2.074,1.165,3.219c1.352,5.411,0.354,11.873-2.964,19.206c-2.43,5.391-5.821,10.724-10.08,15.851
				c-5.177,6.244-11.798,11.123-19.676,14.496c-1.214,0.522-2.469,1.021-3.73,1.488l-3.206,1.188L81.795,201.277z M99.006,166.452
				c0.079,1.178,0.188,2.507,0.329,3.983c4.156-3.935,5.403-6.372,5.716-7.727c-0.031,0.013-0.063,0.025-0.095,0.04
				C103.512,163.367,101.514,164.611,99.006,166.452z M97.445,138.543c0.037,1.381,0.085,2.761,0.144,4.129
				c0.91-1.885,1.575-3.743,1.99-5.568C99.037,137.424,98.337,137.883,97.445,138.543z"/>
			<path style="fill:#FFFFFF;" d="M81.537,199.092c-0.349,0.093-0.722,0.031-1.027-0.175c-0.338-0.229-0.553-0.608-0.581-1.024
				c-0.947-14.051-2.81-32.996-5.533-56.309c-0.729-6.594-1.398-11.808-1.992-15.504c-0.087-0.54,0.154-1.08,0.608-1.362
				c1.794-1.116,5.166-3.523,10.025-7.15c4.281-3.12,7.82-5.471,10.532-6.994c0.019-0.011,0.04-0.021,0.06-0.031
				c1.095-0.541,2.165-1.036,3.178-1.47c1.348-0.578,2.63-1.03,3.807-1.346c3.409-0.91,6.186-0.727,8.254,0.551
				c1.813,1.118,3.057,3.046,3.698,5.728c2.014,8.063-0.167,17.978-6.487,29.503c0.282-0.092,0.559-0.172,0.829-0.245
				c5.436-1.453,8.055,1.022,9.294,3.355c0.007,0.013,0.013,0.025,0.02,0.038c0.444,0.905,0.803,1.898,1.066,2.949
				c1.274,5.102,0.304,11.262-2.883,18.306c-2.381,5.281-5.709,10.513-9.89,15.547c-5.044,6.085-11.502,10.841-19.192,14.133
				c-1.195,0.512-2.43,1.005-3.671,1.465C81.612,199.069,81.575,199.082,81.537,199.092z M94.519,162.508
				c0.116,1.98,0.33,4.439,0.639,7.34c7.418-6.474,8.502-10.051,8.03-11.941c-0.02-0.079-0.039-0.114-0.045-0.123
				c0,0,0,0.001-0.001,0.001c-0.014,0.003-0.249-0.069-0.869,0.097c-0.285,0.075-0.608,0.191-0.964,0.344
				C99.665,158.929,97.382,160.369,94.519,162.508z M92.984,134.585c0.05,2.078,0.126,4.164,0.225,6.211l0.151,3.131
				c2.288-3.548,3.784-7.052,4.457-10.45c0.235-1.139,0.165-1.581,0.137-1.689c-0.001-0.006-0.003-0.012-0.004-0.017
				c-0.074,0.001-0.203,0.013-0.402,0.065c-0.175,0.047-0.375,0.117-0.593,0.211C95.972,132.469,94.638,133.321,92.984,134.585z"/>
			<path style="fill:#FFCD00;" d="M75.639,127.059c1.834-1.141,5.206-3.544,10.116-7.211c4.256-3.104,7.721-5.402,10.393-6.904
				c1.061-0.523,2.098-1.005,3.115-1.44c7.896-3.382,12.566-2.04,14.015,4.02c2.133,8.541-0.639,19.183-8.314,31.923
				c6.047-3.087,10.071-2.75,12.071,1.014c0.404,0.823,0.727,1.715,0.967,2.678c1.202,4.815,0.268,10.619-2.803,17.406
				c-2.344,5.199-5.577,10.279-9.699,15.244c-4.936,5.952-11.171,10.541-18.708,13.77c-1.196,0.512-2.399,0.991-3.612,1.441
				c-0.955-14.161-2.803-32.953-5.54-56.375C76.904,135.971,76.237,130.783,75.639,127.059z M95.156,163.054
				c0.13,2.645,0.449,6.17,0.953,10.573c7.744-6.371,11.174-11.324,10.292-14.856c-0.321-1.284-1.528-1.478-3.622-0.582
				C100.925,158.983,98.384,160.605,95.156,163.054z M93.644,135.127c0.05,2.324,0.13,4.635,0.242,6.934l0.332,6.895
				c3.644-4.759,5.921-9.429,6.829-14.014c0.209-1.012,0.251-1.776,0.123-2.291c-0.272-1.091-1.187-1.304-2.742-0.639
				C97.23,132.525,95.637,133.564,93.644,135.127z"/>
			<path d="M100.936,109.02c5.709-1.527,9.168,0.242,10.378,5.306c2.132,8.54-0.639,19.183-8.314,31.923
				c1.541-0.787,2.952-1.352,4.23-1.693c3.738-0.999,6.351-0.098,7.841,2.706c0.404,0.823,0.726,1.716,0.967,2.679
				c1.203,4.814,0.269,10.619-2.803,17.406c-2.344,5.199-5.576,10.278-9.7,15.242c-4.936,5.954-11.171,10.543-18.707,13.771
				c-1.196,0.512-2.4,0.99-3.613,1.44c-0.955-14.162-2.802-32.953-5.539-56.376c-0.735-6.65-1.402-11.838-2-15.563
				c1.833-1.141,5.205-3.545,10.116-7.212c4.256-3.103,7.72-5.403,10.392-6.903c1.061-0.524,2.098-1.006,3.116-1.441
				C98.598,109.748,99.811,109.32,100.936,109.02 M92.253,147.758c3.644-4.759,5.92-9.43,6.829-14.014
				c0.209-1.013,0.251-1.776,0.123-2.291c-0.225-0.898-0.884-1.201-1.978-0.909c-0.235,0.063-0.489,0.153-0.764,0.271
				c-1.197,0.513-2.79,1.552-4.783,3.115c0.05,2.324,0.13,4.635,0.242,6.934L92.253,147.758 M94.145,172.43
				c7.744-6.372,11.174-11.324,10.292-14.858c-0.257-1.029-1.086-1.358-2.486-0.984c-0.344,0.092-0.722,0.226-1.135,0.403
				c-1.854,0.794-4.396,2.416-7.623,4.864C93.322,164.502,93.641,168.026,94.145,172.43 M100.291,106.436l0.646,2.583
				L100.291,106.436c-1.237,0.33-2.575,0.803-3.979,1.403c-1.035,0.443-2.125,0.948-3.241,1.499c-0.041,0.02-0.08,0.041-0.119,0.063
				c-2.755,1.548-6.337,3.926-10.647,7.068c-0.008,0.005-0.016,0.01-0.023,0.017c-4.829,3.606-8.172,5.991-9.936,7.089
				c-0.907,0.565-1.389,1.645-1.215,2.725c0.59,3.674,1.257,8.865,1.982,15.428c0,0.007,0.001,0.012,0.002,0.018
				c2.721,23.29,4.581,42.213,5.527,56.241c0.057,0.833,0.486,1.591,1.163,2.049c0.61,0.411,1.357,0.536,2.056,0.349
				c0.075-0.02,0.151-0.043,0.225-0.07c1.261-0.468,2.517-0.968,3.729-1.488c7.879-3.375,14.5-8.252,19.679-14.498
				c4.256-5.125,7.648-10.459,10.08-15.852c3.317-7.33,4.314-13.792,2.962-19.203c-0.286-1.145-0.678-2.229-1.165-3.22
				c-0.013-0.025-0.025-0.051-0.039-0.077c-1.068-2.008-3.564-5.025-8.767-4.394c2.176-4.3,3.771-8.377,4.761-12.176
				c1.495-5.741,1.66-11.036,0.488-15.735c-0.727-3.033-2.17-5.232-4.286-6.539C107.152,105.666,104.044,105.432,100.291,106.436
				L100.291,106.436z M94.292,135.252c0.893-0.66,1.592-1.12,2.134-1.439c-0.415,1.824-1.08,3.684-1.99,5.567
				C94.377,138.012,94.329,136.632,94.292,135.252L94.292,135.252z M95.853,163.16c2.508-1.841,4.506-3.084,5.95-3.703
				c0.033-0.014,0.064-0.027,0.095-0.04c-0.313,1.355-1.561,3.792-5.716,7.728C96.041,165.668,95.931,164.338,95.853,163.16
				L95.853,163.16z"/>
		</g>
		<g>
			<path d="M239.438,152.164c2.562-25.146,3.144-50.216,1.728-74.512l-0.093-1.602l25.105-15.844l1.441,9.209l0.04-5.931
				l24.264-15.652l0.519,4.113c2.747,21.766,6.25,41.242,10.407,57.889l2.95,11.812L283.508,136.1l-2.893-17.246l-0.036,22.595
				l-14.08,8.399l-4.066-28.275l0.147,21.722l-23.672,14.067L239.438,152.164z"/>
			<path style="fill:#FFFFFF;" d="M265.662,143.578c-0.292,0.078-0.605,0.049-0.884-0.091c-0.385-0.192-0.652-0.568-0.714-1.005
				L257.86,99.35l0.266,39.104c0.004,0.481-0.242,0.927-0.645,1.167l-17.987,10.689c-0.103,0.061-0.21,0.105-0.321,0.135
				c-0.345,0.092-0.719,0.033-1.026-0.174c-0.405-0.274-0.63-0.76-0.578-1.258c2.568-25.221,3.152-50.364,1.732-74.733
				c-0.028-0.493,0.209-0.962,0.616-1.219l20.504-12.94c0.108-0.068,0.228-0.121,0.349-0.152c0.284-0.076,0.589-0.051,0.862,0.078
				c0.39,0.187,0.665,0.562,0.733,1l3.284,20.975l0.137-20.352c0.004-0.457,0.232-0.881,0.608-1.123l19.654-12.68
				c0.113-0.072,0.235-0.126,0.36-0.159c0.288-0.077,0.598-0.05,0.874,0.085c0.397,0.193,0.67,0.584,0.727,1.033
				c2.756,21.82,6.267,41.351,10.438,58.05l2.479,9.92c0.14,0.563-0.088,1.156-0.565,1.465l-17.436,11.307
				c-0.113,0.073-0.235,0.127-0.362,0.161c-0.279,0.074-0.577,0.051-0.848-0.073c-0.393-0.181-0.671-0.552-0.745-0.99l-4.772-28.45
				l-0.059,36.4c-0.002,0.477-0.247,0.916-0.647,1.154l-9.508,5.672C265.882,143.502,265.773,143.548,265.662,143.578z"/>
			<path style="fill:#FFCD00;" d="M240.813,150.351c2.591-25.419,3.168-50.402,1.738-74.952l20.504-12.94l5.74,36.66l0.244-36.241
				l19.654-12.68c2.776,21.984,6.266,41.388,10.468,58.21c0.834,3.34,1.659,6.646,2.477,9.921l-17.436,11.306l-7.306-43.569
				l-0.085,51.746l-9.509,5.673l-8.898-61.868l0.396,58.046L240.813,150.351z"/>
			<path d="M286.73,49l0.001-0.001 M286.73,49c2.775,21.984,6.266,41.388,10.467,58.209c0.835,3.34,1.66,6.646,2.478,9.921
				l-17.436,11.307l-7.307-43.57l-0.084,51.747l-9.509,5.673l-8.898-61.868l0.395,58.046l-17.987,10.689
				c2.59-25.419,3.167-50.403,1.738-74.952l20.503-12.94l5.74,36.66l0.244-36.241L286.73,49 M261.091,61.261l0.002-0.001
				 M286.085,46.416c-0.034,0.009-0.068,0.019-0.101,0.029c-0.243,0.075-0.468,0.186-0.669,0.322l-19.604,12.647
				c-0.75,0.483-1.209,1.331-1.214,2.245l-0.03,4.464l-0.816-5.216c-0.015-0.105-0.034-0.211-0.061-0.315
				c-0.355-1.415-1.74-2.273-3.108-1.925c-0.012,0.002-0.024,0.006-0.035,0.009c-0.032,0.009-0.065,0.019-0.097,0.028
				c-0.236,0.072-0.455,0.178-0.652,0.31l-20.452,12.907c-0.815,0.515-1.29,1.453-1.232,2.439
				c1.415,24.295,0.834,49.365-1.729,74.512c-0.102,0.997,0.346,1.969,1.158,2.517c0.614,0.415,1.361,0.532,2.053,0.347
				c0.222-0.059,0.436-0.148,0.64-0.27l17.986-10.689c0.807-0.479,1.302-1.37,1.296-2.333l-0.139-20.164l3.51,24.397
				c0.126,0.875,0.66,1.627,1.429,2.012c0.558,0.277,1.184,0.336,1.768,0.18c0.223-0.059,0.438-0.15,0.643-0.271l9.509-5.672
				c0.798-0.477,1.29-1.355,1.292-2.309l0.033-21.057l2.236,13.332c0.146,0.877,0.705,1.619,1.49,1.981
				c0.54,0.249,1.139,0.296,1.697,0.146c0.252-0.066,0.496-0.175,0.724-0.322l17.436-11.306c0.953-0.618,1.41-1.803,1.128-2.929
				l-2.477-9.921c-4.152-16.626-7.65-36.077-10.398-57.81c-0.013-0.133-0.036-0.267-0.069-0.4c-0.353-1.416-1.737-2.27-3.105-1.927
				C286.109,46.409,286.098,46.412,286.085,46.416L286.085,46.416z"/>
		</g>
		<g>
			<path d="M150.897,183.62c-8.15,2.179-13.719-2.771-16.955-7.306c-2.435-3.428-4.292-7.664-5.524-12.594
				c-1.185-4.747-1.795-10.244-1.812-16.338c-0.051-10.264,1.738-20.612,5.319-30.75c4.554-12.83,10.987-21.101,19.121-24.584
				c0.852-0.365,1.706-0.663,2.539-0.885c8.108-2.168,13.628,2.818,16.831,7.384c2.532,3.581,4.45,7.931,5.697,12.923
				c1.171,4.685,1.794,10.098,1.855,16.087c0.033,10.231-1.796,20.561-5.438,30.724c-4.569,12.758-10.978,20.981-19.051,24.439
				C152.613,183.091,151.744,183.393,150.897,183.62z M150.103,158.689c0.878,0.6,1.84,0.733,3.026,0.416
				c0.311-0.084,0.638-0.199,0.975-0.343c2.639-1.13,4.726-3.827,6.204-8.014c1.285-3.615,1.903-7.56,1.839-11.731
				c-0.063-4.925-0.946-9.476-2.627-13.531c-1.667-3.83-2.944-3.49-3.364-3.378c-0.127,0.034-0.262,0.081-0.401,0.142
				c-1.723,0.738-4.23,3.285-6.387,11.229c-1.54,5.481-2.313,10.555-2.303,15.1c0.037,2.313,0.264,4.319,0.675,5.965
				C148.235,156.516,149.029,157.911,150.103,158.689z"/>
			<path style="fill:#FFFFFF;" d="M147.422,179.037c-5.984,1.6-11.231-0.69-15.595-6.808c-2.336-3.288-4.123-7.37-5.313-12.134
				c-1.159-4.641-1.755-10.026-1.772-16.009c-0.05-10.107,1.714-20.299,5.242-30.288c4.424-12.464,10.615-20.474,18.403-23.809
				c0.796-0.342,1.593-0.619,2.368-0.826c5.945-1.59,11.147,0.724,15.464,6.876c2.438,3.447,4.287,7.646,5.493,12.474
				c1.144,4.58,1.754,9.884,1.814,15.767c0.032,10.061-1.771,20.234-5.357,30.246c-4.439,12.396-10.608,20.359-18.335,23.669
				C149.021,178.543,148.21,178.826,147.422,179.037z M152.682,117.525c-0.185,0.049-0.377,0.117-0.571,0.2
				c-2.891,1.238-5.291,5.31-7.135,12.101c-1.574,5.6-2.364,10.805-2.351,15.482c0.037,2.407,0.278,4.524,0.715,6.276
				c0.575,2.303,1.548,3.959,2.892,4.922c1.176,0.813,2.513,1.014,4.066,0.599h0.001c0.369-0.099,0.753-0.233,1.145-0.401
				c2.987-1.279,5.316-4.235,6.924-8.788c1.338-3.769,1.983-7.876,1.917-12.211c-0.065-5.105-0.987-9.834-2.739-14.058
				C155.438,116.788,153.363,117.343,152.682,117.525z"/>
			<path style="fill:#FFCD00;" d="M150.844,92.42c6.339-2.715,11.771-0.847,16.297,5.602c2.353,3.329,4.116,7.337,5.287,12.023
				c1.122,4.495,1.713,9.645,1.772,15.447c0.032,9.938-1.727,19.861-5.277,29.768c-4.33,12.09-10.203,19.725-17.619,22.9
				c-6.401,2.741-11.891,0.9-16.475-5.525c-2.244-3.16-3.946-7.052-5.102-11.676c-1.138-4.559-1.714-9.785-1.731-15.679
				c-0.049-10.001,1.673-19.942,5.164-29.825C137.474,103.301,143.367,95.623,150.844,92.42z M153.581,117.689
				c-3.29,1.41-5.918,5.733-7.884,12.973c-1.613,5.739-2.412,11.021-2.398,15.848c0.039,2.542,0.292,4.744,0.757,6.606
				c0.657,2.634,1.792,4.528,3.407,5.686c1.84,1.273,3.985,1.384,6.438,0.333c3.349-1.434,5.897-4.621,7.642-9.563
				c1.399-3.94,2.064-8.171,1.995-12.69c-0.067-5.302-1.015-10.155-2.843-14.563C158.823,118.004,156.451,116.461,153.581,117.689z"
				/>
			<path d="M151.077,90.455c5.406-1.445,10.106,0.678,14.099,6.369c2.354,3.328,4.116,7.336,5.286,12.023
				c1.123,4.495,1.714,9.645,1.773,15.446c0.031,9.939-1.727,19.862-5.277,29.769c-4.33,12.09-10.204,19.723-17.619,22.9
				c-0.759,0.324-1.507,0.585-2.241,0.781c-5.451,1.457-10.194-0.645-14.234-6.307c-2.244-3.16-3.947-7.053-5.101-11.676
				c-1.139-4.559-1.714-9.785-1.731-15.679c-0.049-10.001,1.673-19.943,5.163-29.826c4.314-12.153,10.207-19.832,17.685-23.034
				C149.625,90.904,150.358,90.647,151.077,90.455 M150.621,158.397c0.429-0.114,0.867-0.268,1.316-0.46
				c3.349-1.435,5.896-4.621,7.642-9.564c1.399-3.939,2.063-8.169,1.994-12.688c-0.068-5.303-1.015-10.156-2.842-14.563
				c-1.708-3.938-3.833-5.567-6.372-4.889c-0.244,0.065-0.491,0.152-0.743,0.26c-3.29,1.41-5.917,5.732-7.883,12.973
				c-1.613,5.738-2.412,11.021-2.398,15.848c0.04,2.541,0.292,4.744,0.756,6.605c0.658,2.635,1.792,4.529,3.406,5.686
				C147.001,158.645,148.709,158.909,150.621,158.397 M150.433,87.871l0.646,2.584L150.433,87.871h-0.001
				c-0.833,0.223-1.687,0.521-2.539,0.887c-8.134,3.483-14.567,11.753-19.119,24.579c-3.582,10.143-5.372,20.491-5.322,30.76
				c0.017,6.088,0.627,11.585,1.813,16.333c1.231,4.93,3.088,9.165,5.52,12.588c2.29,3.209,4.863,5.461,7.651,6.697
				c2.898,1.283,6.029,1.49,9.307,0.613c0.847-0.226,1.716-0.529,2.583-0.9c8.072-3.457,14.482-11.68,19.05-24.439
				c3.642-10.161,5.471-20.492,5.438-30.704c0-0.006,0-0.013,0-0.019c-0.06-5.99-0.684-11.403-1.854-16.087
				c-1.247-4.992-3.166-9.343-5.703-12.932c-2.256-3.214-4.804-5.48-7.569-6.73C156.809,87.217,153.695,86.999,150.433,87.871
				L150.433,87.871z M143.915,145.288c-0.011-4.547,0.761-9.619,2.296-15.078c0.002-0.008,0.004-0.017,0.006-0.023
				c2.157-7.943,4.663-10.491,6.386-11.227c0.139-0.061,0.274-0.107,0.401-0.143c0.42-0.111,1.698-0.453,3.365,3.379
				c1.68,4.057,2.562,8.605,2.624,13.523c0.064,4.178-0.554,8.123-1.836,11.734c-1.48,4.191-3.568,6.887-6.208,8.019
				c-0.336,0.143-0.665,0.259-0.975,0.342c-1.186,0.317-2.148,0.184-3.027-0.417c-1.073-0.777-1.867-2.172-2.36-4.145
				C144.178,149.605,143.951,147.6,143.915,145.288L143.915,145.288z"/>
		</g>
		<g>
			<path d="M208.333,171.534c-8.151,2.179-13.72-2.77-16.957-7.306c-2.435-3.429-4.292-7.664-5.523-12.594
				c-1.186-4.748-1.795-10.245-1.811-16.338c-0.052-10.264,1.739-20.612,5.319-30.751c4.554-12.83,10.987-21.101,19.121-24.583
				c0.852-0.366,1.706-0.664,2.538-0.887c8.108-2.167,13.628,2.82,16.832,7.385c2.531,3.58,4.45,7.932,5.697,12.924
				c1.169,4.684,1.793,10.097,1.854,16.086c0.033,10.231-1.796,20.562-5.436,30.725c-4.569,12.758-10.98,20.98-19.053,24.438
				C210.048,171.004,209.179,171.308,208.333,171.534z M207.537,146.602c0.878,0.602,1.841,0.734,3.026,0.417
				c0.311-0.083,0.639-0.198,0.976-0.342c2.639-1.132,4.727-3.827,6.205-8.014c1.284-3.616,1.903-7.562,1.839-11.731
				c-0.063-4.926-0.946-9.477-2.625-13.531c-1.668-3.832-2.945-3.49-3.365-3.379c-0.128,0.035-0.263,0.082-0.401,0.142
				c-1.724,0.738-4.23,3.285-6.387,11.229c-1.541,5.481-2.314,10.555-2.302,15.1c0.036,2.313,0.263,4.318,0.674,5.964
				C205.669,144.43,206.464,145.825,207.537,146.602z"/>
			<path style="fill:#FFFFFF;" d="M204.856,166.949c-5.984,1.601-11.231-0.689-15.595-6.807c-2.336-3.287-4.123-7.369-5.313-12.133
				c-1.159-4.641-1.755-10.027-1.771-16.01c-0.05-10.106,1.714-20.299,5.242-30.287c4.423-12.465,10.614-20.475,18.402-23.81
				c0.797-0.342,1.594-0.62,2.368-0.826c5.945-1.589,11.147,0.724,15.465,6.876c2.438,3.447,4.286,7.646,5.491,12.474
				c1.145,4.58,1.755,9.885,1.814,15.767c0.032,10.061-1.771,20.234-5.357,30.246c-4.439,12.396-10.607,20.359-18.334,23.67
				C206.456,166.456,205.645,166.739,204.856,166.949z M210.116,105.438c-0.185,0.05-0.377,0.116-0.571,0.2
				c-2.891,1.238-5.291,5.308-7.135,12.1c-1.574,5.6-2.364,10.806-2.351,15.483c0.037,2.407,0.277,4.524,0.715,6.276
				c0.576,2.304,1.549,3.959,2.893,4.922c1.176,0.814,2.513,1.015,4.066,0.599l0,0c0.368-0.098,0.753-0.233,1.146-0.401
				c2.986-1.279,5.316-4.236,6.923-8.787c1.339-3.77,1.983-7.877,1.917-12.211c-0.064-5.105-0.986-9.835-2.738-14.059
				C212.872,104.701,210.798,105.256,210.116,105.438z"/>
			<path style="fill:#FFCD00;" d="M208.278,80.334c6.339-2.715,11.771-0.847,16.297,5.602c2.353,3.328,4.116,7.336,5.287,12.023
				c1.123,4.495,1.713,9.645,1.771,15.446c0.032,9.938-1.727,19.861-5.276,29.768c-4.33,12.09-10.203,19.724-17.619,22.9
				c-6.4,2.741-11.891,0.899-16.475-5.525c-2.244-3.16-3.946-7.053-5.101-11.676c-1.138-4.559-1.714-9.785-1.731-15.679
				c-0.048-10.001,1.673-19.943,5.164-29.826C194.908,91.215,200.802,83.536,208.278,80.334z M211.016,105.604
				c-3.291,1.409-5.918,5.733-7.884,12.973c-1.612,5.738-2.411,11.02-2.398,15.848c0.039,2.541,0.292,4.744,0.757,6.605
				c0.658,2.635,1.793,4.529,3.407,5.686c1.84,1.273,3.985,1.384,6.439,0.334c3.349-1.435,5.896-4.622,7.642-9.564
				c1.399-3.939,2.064-8.169,1.995-12.69c-0.067-5.301-1.015-10.156-2.843-14.563C216.258,105.917,213.886,104.374,211.016,105.604z
				"/>
			<path d="M208.513,78.369c5.406-1.446,10.105,0.678,14.098,6.369c2.354,3.328,4.116,7.336,5.286,12.021
				c1.124,4.496,1.716,9.646,1.773,15.447c0.032,9.939-1.727,19.862-5.276,29.77c-4.33,12.09-10.204,19.723-17.619,22.9
				c-0.76,0.325-1.507,0.586-2.24,0.782c-5.451,1.457-10.195-0.644-14.235-6.307c-2.244-3.16-3.947-7.054-5.101-11.677
				c-1.139-4.558-1.714-9.784-1.731-15.678c-0.05-10.001,1.672-19.943,5.163-29.826c4.314-12.153,10.207-19.833,17.684-23.034
				C207.059,78.816,207.792,78.562,208.513,78.369 M208.056,146.311c0.429-0.114,0.867-0.268,1.315-0.459
				c3.349-1.436,5.897-4.622,7.643-9.564c1.4-3.939,2.064-8.17,1.994-12.689c-0.067-5.303-1.014-10.156-2.842-14.563
				c-1.709-3.938-3.833-5.567-6.372-4.889c-0.244,0.065-0.491,0.151-0.743,0.259c-3.29,1.409-5.917,5.733-7.883,12.973
				c-1.613,5.739-2.412,11.021-2.398,15.849c0.039,2.541,0.292,4.744,0.756,6.605c0.658,2.634,1.792,4.528,3.406,5.686
				C204.436,146.558,206.143,146.822,208.056,146.311 M207.868,75.785l0.645,2.584L207.868,75.785L207.868,75.785
				c-0.834,0.223-1.688,0.521-2.54,0.885c-8.134,3.484-14.566,11.754-19.119,24.581c-3.582,10.142-5.373,20.489-5.322,30.759
				c0.017,6.088,0.627,11.585,1.813,16.333c1.232,4.931,3.089,9.165,5.521,12.589c2.291,3.209,4.863,5.46,7.652,6.696
				c2.898,1.284,6.028,1.49,9.307,0.614c0.847-0.227,1.715-0.529,2.582-0.9c8.072-3.457,14.482-11.681,19.052-24.439
				c3.64-10.16,5.47-20.491,5.438-30.704c-0.001-0.006,0-0.012-0.001-0.018c-0.061-5.99-0.685-11.402-1.854-16.087
				c-1.247-4.992-3.166-9.343-5.702-12.932c-2.257-3.214-4.806-5.48-7.569-6.729C214.243,75.13,211.13,74.913,207.868,75.785
				L207.868,75.785z M201.349,133.201c-0.011-4.546,0.761-9.619,2.295-15.077c0.002-0.009,0.004-0.017,0.007-0.023
				c2.157-7.943,4.663-10.49,6.386-11.229c0.14-0.059,0.274-0.107,0.401-0.141c0.421-0.112,1.699-0.454,3.365,3.377
				c1.68,4.057,2.562,8.607,2.625,13.525c0.065,4.178-0.554,8.123-1.836,11.733c-1.48,4.191-3.568,6.888-6.208,8.019
				c-0.336,0.145-0.664,0.26-0.975,0.343c-1.186,0.316-2.148,0.185-3.026-0.417c-1.073-0.777-1.868-2.173-2.36-4.146
				C201.612,137.52,201.387,135.514,201.349,133.201L201.349,133.201z"/>
		</g>
		<g>
			<path d="M321.849,135.385c-1.205,0.322-2.395,0.43-3.537,0.321l-0.036-0.004c-3.188-0.352-5.393-2.345-6.208-5.611
				c-0.915-3.664-0.086-7.719,2.467-12.05c2.008-3.35,4.552-5.942,7.572-7.721c1.121-0.678,2.278-1.184,3.415-1.488
				c1.333-0.356,2.666-0.445,3.965-0.264c3.23,0.333,5.456,2.309,6.271,5.57c0.923,3.694,0.01,7.764-2.71,12.096
				c-2.001,3.236-4.516,5.771-7.461,7.518C324.324,134.508,323.063,135.06,321.849,135.385z M316.009,46.256l25.569-6.082
				l-0.913,4.146c-2.55,11.576-4.336,20.646-5.308,26.957c-1.302,8.582-2.114,17.758-2.413,27.262l-0.057,1.803l-17.771,6.711
				L316.009,46.256z"/>
			<path style="fill:#FFFFFF;" d="M318.373,130.8c-1.061,0.284-2.102,0.38-3.096,0.285c-2.671-0.294-4.433-1.891-5.114-4.619
				c-0.824-3.302-0.045-7.01,2.318-11.021c1.889-3.151,4.279-5.59,7.109-7.257c1.031-0.623,2.078-1.082,3.101-1.354
				c1.178-0.315,2.352-0.392,3.491-0.23c2.704,0.271,4.491,1.854,5.172,4.579c0.828,3.316-0.026,7.029-2.543,11.033
				c-1.892,3.063-4.255,5.449-7.021,7.088C320.626,130.001,319.474,130.506,318.373,130.8z M314.922,101.217
				c-0.367,0.098-0.76,0.024-1.071-0.205c-0.346-0.254-0.548-0.668-0.541-1.107l0.805-54.828c0.009-0.603,0.406-1.122,0.967-1.271
				c0.011-0.004,19.627-4.669,19.627-4.669c0.432-0.104,0.886,0.031,1.199,0.355c0.314,0.325,0.445,0.794,0.347,1.241
				c-2.556,11.604-4.347,20.703-5.324,27.043c-1.311,8.641-2.127,17.869-2.428,27.429c-0.017,0.544-0.353,1.023-0.847,1.21
				l-12.615,4.764C315.001,101.192,314.961,101.205,314.922,101.217z"/>
			<path style="fill:#FFCD00;" d="M322.193,110.545c2.013-1.217,3.948-1.69,5.803-1.42c2.171,0.209,3.528,1.406,4.074,3.588
				c0.737,2.953-0.055,6.279-2.375,9.973c-1.793,2.9-3.985,5.119-6.581,6.656c-2.072,1.243-3.992,1.78-5.754,1.612
				c-2.11-0.232-3.439-1.44-3.984-3.625c-0.737-2.952-0.013-6.284,2.172-9.992C317.323,114.373,319.538,112.109,322.193,110.545z
				 M317.368,46.294l19.593-4.66c-2.576,11.695-4.355,20.737-5.341,27.13c-1.326,8.742-2.14,17.941-2.442,27.594l-12.615,4.764
				L317.368,46.294z"/>
			<path d="M315.403,45.096l19.594-4.659c-2.577,11.694-4.355,20.737-5.341,27.129c-1.326,8.743-2.14,17.942-2.442,27.595
				l-12.615,4.764L315.403,45.096 M323.014,108.125c1.028-0.275,2.034-0.341,3.019-0.197c2.17,0.209,3.528,1.405,4.074,3.587
				c0.736,2.954-0.056,6.279-2.376,9.974c-1.793,2.9-3.984,5.119-6.581,6.656c-1.073,0.645-2.107,1.099-3.099,1.364
				c-0.921,0.246-1.807,0.329-2.655,0.247c-2.109-0.232-3.44-1.439-3.983-3.624c-0.738-2.952-0.013-6.284,2.172-9.993
				c1.775-2.963,3.99-5.228,6.646-6.791C321.175,108.776,322.103,108.368,323.014,108.125 M314.758,42.512
				c-1.122,0.301-1.916,1.34-1.934,2.543l-0.806,54.829c-0.012,0.878,0.394,1.706,1.085,2.216c0.623,0.459,1.407,0.604,2.14,0.408
				c0.08-0.021,0.161-0.047,0.24-0.076l12.614-4.764c0.989-0.373,1.659-1.332,1.694-2.421c0.297-9.505,1.109-18.679,2.413-27.267
				c0.971-6.306,2.757-15.375,5.306-26.951c0.198-0.896-0.064-1.834-0.693-2.482c-0.627-0.648-1.534-0.918-2.399-0.711
				l-19.593,4.659C314.804,42.5,314.78,42.506,314.758,42.512L314.758,42.512z M322.368,105.541
				c-1.133,0.303-2.286,0.806-3.428,1.495c-3.015,1.778-5.555,4.368-7.55,7.696c-0.003,0.006-0.007,0.012-0.01,0.018
				c-2.553,4.33-3.382,8.385-2.467,12.049c0.816,3.267,3.021,5.26,6.208,5.611c0.012,0.002,0.024,0.003,0.036,0.004
				c1.143,0.108,2.332,0,3.538-0.322c1.214-0.324,2.475-0.875,3.747-1.639c2.933-1.737,5.444-4.268,7.454-7.518
				c2.718-4.329,3.629-8.396,2.706-12.088c-0.814-3.262-3.041-5.238-6.271-5.57C325.034,105.097,323.701,105.185,322.368,105.541
				L322.368,105.541z"/>
		</g>
	</g>
</g>
</svg>
